<svg width="415" height="415" viewBox="0 0 415 415" fill="none" xmlns="http://www.w3.org/2000/svg">
<circle cx="207.5" cy="207.5" r="207.5" fill="#C6ED73"/>
<mask id="mask0_2_64" style="mask-type:alpha" maskUnits="userSpaceOnUse" x="0" y="0" width="415" height="415">
<circle cx="207.5" cy="207.5" r="207.5" fill="#C6ED73"/>
</mask>
<g mask="url(#mask0_2_64)">
<path d="M107 109.285C72 97.2848 59 281.785 59 379.785L107 479.5H316.5L349.5 379.785C367.1 344.585 360 306.619 353 272.285C369 163.085 335.333 127.785 316.5 123.785C300.5 35.3848 230.833 44.9515 197.5 59.2848C176.7 32.8848 149.5 49.2848 136 59.2848C115 67.2848 107.833 93.4515 107 109.285Z" fill="white" stroke="#345830" stroke-width="2"/>
</g>
<path d="M224.127 80.3565C219.994 82.0541 206.999 76.9305 203.756 80.4316L214.022 122.715L239.407 153.508C243.272 146.878 240.245 105.495 240.067 110.113C240.067 110.113 238.036 110.035 239.582 101.595C236.505 103.368 236.554 98.4487 237.018 94.2101C237.482 89.9714 242.135 87.8197 232.237 91.5974C223.567 94.9066 223.128 85.1752 224.127 80.3565Z" fill="#CFD9BB"/>
<path d="M166.316 150.356C162.183 152.054 149.188 146.931 145.945 150.432L156.211 192.715L181.596 223.508C185.461 216.878 182.434 175.495 182.256 180.113C182.256 180.113 180.225 180.035 181.771 171.595C178.694 173.368 178.743 168.449 179.207 164.21C179.671 159.971 184.324 157.82 174.426 161.597C165.756 164.907 165.317 155.175 166.316 150.356Z" fill="#CFD9BB"/>
<path d="M289.723 85.8349C286.167 87.0395 275.968 81.3849 272.975 84.2877L277.449 123.265L295.425 153.071C299.223 147.393 300.613 109.802 300.035 113.956C300.035 113.956 298.373 113.725 300.434 106.229C297.739 107.586 298.241 103.15 299.019 99.3608C299.798 95.5719 303.823 93.9987 295.335 96.6236C287.899 98.923 288.451 90.105 289.723 85.8349Z" fill="#CFD9BB"/>
<path d="M234.764 125.644L234.766 125.653L234.768 125.663C236.241 132.292 236.499 145.562 234.201 157.609C233.053 163.628 231.277 169.286 228.735 173.637C226.193 177.989 222.938 180.948 218.853 181.765C210.134 183.508 201.645 178.426 194.82 168.267C188.009 158.127 182.988 143.09 181.246 125.426C180.296 115.789 181.782 105.162 185.099 96.9688C188.445 88.7044 193.498 83.2497 199.5 83.2497C212.86 83.2497 221.669 93.649 227.189 104.344C229.936 109.666 231.831 114.995 233.04 118.998C233.644 120.998 234.076 122.664 234.357 123.828C234.497 124.41 234.599 124.866 234.666 125.176C234.7 125.331 234.724 125.449 234.74 125.528L234.758 125.616L234.763 125.638L234.764 125.643L234.764 125.644C234.764 125.644 234.764 125.644 234.771 125.642L234.764 125.644Z" fill="#C6ED73" stroke="#345830" stroke-width="1.5"/>
<path d="M296.25 123.5C296.25 135.049 294.629 147.95 291.173 157.122C289.442 161.717 287.283 165.282 284.722 167.306C283.452 168.31 282.092 168.928 280.633 169.119C279.174 169.31 277.569 169.079 275.798 168.312C267.279 164.62 259.756 155.549 254.347 145.549C248.942 135.556 245.75 124.828 245.75 118C245.75 110.987 245.752 100.054 247.364 90.8798C248.171 86.2871 249.37 82.207 251.127 79.2936C252.872 76.3987 255.102 74.75 258 74.75C265.303 74.75 274.866 79.7151 282.637 88.3759C290.384 97.0087 296.25 109.211 296.25 123.5Z" fill="#C6ED73" stroke="#345830" stroke-width="1.5"/>
<path d="M349.396 178.774L349.402 178.832L349.416 178.889C349.95 181.048 350.254 184.783 350.191 189.249C350.129 193.698 349.703 198.817 348.805 203.723C347.906 208.637 346.541 213.295 344.624 216.849C342.698 220.417 340.293 222.737 337.368 223.262C334.215 223.827 331.112 222.875 328.145 220.684C325.168 218.486 322.364 215.062 319.873 210.782C314.892 202.223 311.252 190.394 309.958 178.627C308.807 168.151 310.694 159.509 314.011 153.514C317.341 147.495 322.039 144.25 326.5 144.25C336.257 144.25 341.997 152.601 345.327 161.371C346.977 165.716 347.996 170.07 348.602 173.344C348.904 174.979 349.103 176.341 349.227 177.292C349.288 177.768 349.331 178.14 349.358 178.393C349.372 178.52 349.381 178.616 349.388 178.68L349.394 178.752L349.396 178.77L349.396 178.773L349.396 178.774Z" fill="#C6ED73" stroke="#345830" stroke-width="1.5"/>
<path d="M324 156.259C324 163.259 327 163.759 330 165.759C333 167.759 328 150.259 324 156.259Z" fill="white"/>
<path d="M262 91.2592C262 98.2592 265 98.7592 268 100.759C271 102.759 266 85.2592 262 91.2592Z" fill="white"/>
<path d="M198 99.2592C198 106.259 201 106.759 204 108.759C207 110.759 202 93.2592 198 99.2592Z" fill="white"/>
<path d="M262 196.5C252.5 200 244.29 206.291 239 210.227L249 250.5L287.636 264C287.636 241 300 233.5 290.708 235.384C283.778 236.788 291.123 223.107 293 219C287.88 221.054 278.488 219.121 279 214.5C279.512 209.879 296.5 209 270.229 208.173C253.365 207.643 262 203.5 262 196.5Z" fill="#CFD9BB"/>
<path d="M286 249C281 250.529 276.821 256.014 273 259L279.5 283.5L303.319 296C307.756 290.418 312.029 273.935 307 273C306 272.814 304.5 273 306 266C302.303 267.558 302.13 263.505 302.5 260C302.87 256.495 308.487 254.575 296.5 258C286 261 285 253 286 249Z" fill="#CFD9BB"/>
<path d="M176.761 193.129C178.742 204.516 177.665 215.491 174.254 223.584C170.84 231.685 165.173 236.75 158 236.75C150.718 236.75 143.549 232.432 138.169 224.757C132.793 217.089 129.25 206.12 129.25 193C129.25 181.414 130.001 171.253 132.095 164.01C133.142 160.388 134.508 157.559 136.229 155.646C137.93 153.756 139.983 152.75 142.5 152.75C151.477 152.75 159.026 157.108 164.853 164.345C170.69 171.595 174.776 181.716 176.761 193.129Z" fill="#C6ED73" stroke="#345830" stroke-width="1.5"/>
<path d="M146 160.259C146 167.259 149 167.759 152 169.759C155 171.759 150 154.259 146 160.259Z" fill="white"/>
<path d="M282.403 171.408C272.944 196.249 263.928 203.94 263.928 203.94C256.638 210.604 250.63 206.923 250.802 217.102C250.865 220.861 254.906 217.939 264.198 219.924C279.534 223.201 282.296 217.241 282.939 209.749C272.438 214.74 292.348 176.496 285.855 185.858C280.931 192.957 279.663 193.816 280.222 191.3C281.742 184.455 282.828 176.087 282.403 171.408Z" fill="#CFD9BB"/>
<path d="M298.5 303C294 311 274.5 311.5 260 303C232.5 319 209.667 311.5 199 304C199.5 306.5 153.5 329 148.5 298.5C144.5 274.1 175 256.833 190 251C212.5 217.5 213.947 214.339 239.5 211.5C266.5 208.5 277.5 238 277.5 259.5C287.5 263 313.928 275.573 298.5 303Z" fill="#C6ED73" stroke="#345830" stroke-width="1.5"/>
<path d="M217.951 233.492C217.441 236.745 233.841 233.594 230.533 229.534C224.941 222.672 218.941 227.172 217.951 233.492Z" fill="white"/>
</svg>
