<svg width="101" height="101" viewBox="0 0 101 101" fill="none" xmlns="http://www.w3.org/2000/svg">
<g id="shelter-svgrepo-com 1" clip-path="url(#clip0_55_5016)">
<g id="Group">
<path id="Vector" d="M98.7788 31.8495L52.1808 5.37406C51.1384 4.78181 49.862 4.78181 48.8199 5.37406L2.22158 31.8495C0.879489 32.6124 0.218883 34.1835 0.613495 35.6757C1.00777 37.1687 2.35828 38.2084 3.90205 38.2084H12.1505V92.669C12.1505 94.5471 13.6731 96.0704 15.5519 96.0704H85.4495C87.3276 96.0704 88.8509 94.5475 88.8509 92.669V38.2084H97.0994C98.6431 38.2084 99.9933 37.1687 100.388 35.6757C100.782 34.1835 100.121 32.6124 98.7788 31.8495ZM82.0478 34.8071V89.2677H18.9526V34.8071C18.9526 33.267 17.929 31.966 16.5246 31.5468L50.5 12.2427L84.4754 31.5468C83.0714 31.9656 82.0478 33.2667 82.0478 34.8071Z" fill="black"/>
<path id="Vector_2" d="M38.4018 35.127C29.853 35.127 22.8984 42.1172 22.8984 50.7088C22.8984 57.1047 27.3732 64.1485 36.1988 71.6448C42.4075 76.9182 48.5314 80.5061 48.7893 80.6566C49.3186 80.965 49.9106 81.1192 50.5021 81.1192C51.0941 81.1192 51.6856 80.965 52.2153 80.6566C52.4728 80.5064 58.5961 76.9179 64.8038 71.6445C73.6281 64.1482 78.1021 57.1044 78.1021 50.7088C78.1021 42.1168 71.1479 35.127 62.5998 35.127C57.7116 35.127 53.3449 37.4138 50.5018 40.9795C47.6584 37.4138 43.2904 35.127 38.4018 35.127ZM50.5018 54.1105C52.3799 54.1105 53.9032 52.5876 53.9032 50.7088C53.9032 45.868 57.8045 41.9296 62.5994 41.9296C67.3968 41.9296 71.2995 45.868 71.2995 50.7088C71.2995 58.1626 59.1883 68.3094 50.5018 73.7424C41.8136 68.3094 29.7008 58.1626 29.7008 50.7088C29.7008 45.868 33.6042 41.9296 38.4018 41.9296C43.1984 41.9296 47.1008 45.868 47.1008 50.7088C47.1008 52.5872 48.6234 54.1105 50.5018 54.1105Z" fill="black"/>
</g>
</g>
<defs>
<clipPath id="clip0_55_5016">
<rect width="100" height="100" fill="white" transform="translate(0.5 0.5)"/>
</clipPath>
</defs>
</svg>
