<svg width="101" height="101" viewBox="0 0 101 101" fill="none" xmlns="http://www.w3.org/2000/svg">
<g id="pet-svgrepo-com 1">
<g id="SVGRepo_iconCarrier">
<path id="Vector" d="M17.6451 69.9347C16.6288 82.1728 25.8603 92.1666 38.1408 92.1666H58.4247C72.2297 92.1666 81.7153 81.0295 79.4286 67.3939C77.0148 53.0808 63.2098 41.3508 48.685 41.3508C32.9322 41.3508 18.9578 54.2241 17.6451 69.9347Z" stroke="black" stroke-width="6" stroke-linecap="round" stroke-linejoin="round"/>
<path id="Vector_2" d="M43.307 30.7642C49.1538 30.7642 53.8936 26.0243 53.8936 20.1775C53.8936 14.3307 49.1538 9.59088 43.307 9.59088C37.46 9.59088 32.7202 14.3307 32.7202 20.1775C32.7202 26.0243 37.46 30.7642 43.307 30.7642Z" stroke="black" stroke-width="6" stroke-linecap="round" stroke-linejoin="round"/>
<path id="Vector_3" d="M72.2296 35.8455C76.9072 35.8455 80.6989 32.0537 80.6989 27.3762C80.6989 22.6988 76.9072 18.9069 72.2296 18.9069C67.5524 18.9069 63.7603 22.6988 63.7603 27.3762C63.7603 32.0537 67.5524 35.8455 72.2296 35.8455Z" stroke="black" stroke-width="6" stroke-linecap="round" stroke-linejoin="round"/>
<path id="Vector_4" d="M87.8979 52.7844C91.4059 52.7844 94.2499 49.9404 94.2499 46.4324C94.2499 42.924 91.4059 40.0802 87.8979 40.0802C84.3899 40.0802 81.5459 42.924 81.5459 46.4324C81.5459 49.9404 84.3899 52.7844 87.8979 52.7844Z" stroke="black" stroke-width="6" stroke-linecap="round" stroke-linejoin="round"/>
<path id="Vector_5" d="M15.7816 44.315C20.459 44.315 24.2509 40.523 24.2509 35.8455C24.2509 31.1681 20.459 27.3762 15.7816 27.3762C11.1041 27.3762 7.31226 31.1681 7.31226 35.8455C7.31226 40.523 11.1041 44.315 15.7816 44.315Z" stroke="black" stroke-width="6" stroke-linecap="round" stroke-linejoin="round"/>
</g>
</g>
</svg>
