<svg width="100" height="101" viewBox="0 0 100 101" fill="none" xmlns="http://www.w3.org/2000/svg">
<g id="money-svgrepo-com 1" clip-path="url(#clip0_55_5011)">
<path id="Vector" d="M96.875 22.375H3.125C2.2962 22.375 1.50134 22.7042 0.915291 23.2903C0.32924 23.8763 0 24.6712 0 25.5L0 75.5C0 76.3288 0.32924 77.1237 0.915291 77.7097C1.50134 78.2958 2.2962 78.625 3.125 78.625H96.875C97.7038 78.625 98.4987 78.2958 99.0847 77.7097C99.6708 77.1237 100 76.3288 100 75.5V25.5C100 24.6712 99.6708 23.8763 99.0847 23.2903C98.4987 22.7042 97.7038 22.375 96.875 22.375ZM78.4062 72.375H21.5938C20.9424 68.5424 19.1159 65.0069 16.367 62.258C13.6181 59.5091 10.0826 57.6825 6.25 57.0312V43.9688C10.0826 43.3174 13.6181 41.4909 16.367 38.742C19.1159 35.9931 20.9424 32.4576 21.5938 28.625H78.4062C79.0575 32.4576 80.8841 35.9931 83.633 38.742C86.3819 41.4909 89.9174 43.3174 93.75 43.9688V57.0312C89.9174 57.6825 86.3819 59.5091 83.633 62.258C80.8841 65.0069 79.0575 68.5424 78.4062 72.375ZM93.75 37.5625C91.6004 37.0014 89.6393 35.8775 88.0684 34.3066C86.4975 32.7357 85.3736 30.7746 84.8125 28.625H93.75V37.5625ZM15.1875 28.625C14.6264 30.7746 13.5025 32.7357 11.9316 34.3066C10.3607 35.8775 8.39955 37.0014 6.25 37.5625V28.625H15.1875ZM6.25 63.4375C8.39955 63.9986 10.3607 65.1225 11.9316 66.6934C13.5025 68.2643 14.6264 70.2254 15.1875 72.375H6.25V63.4375ZM84.8125 72.375C85.3736 70.2254 86.4975 68.2643 88.0684 66.6934C89.6393 65.1225 91.6004 63.9986 93.75 63.4375V72.375H84.8125Z" fill="black"/>
<path id="Vector_2" d="M23.4688 2.71875C23.1129 2.51302 22.72 2.37952 22.3124 2.3259C21.9049 2.27228 21.4908 2.29958 21.0938 2.40625C20.2931 2.61424 19.6076 3.13118 19.1875 3.84375L12.9375 14.5625C12.5231 15.2836 12.4121 16.1397 12.629 16.9426C12.8458 17.7455 13.3727 18.4294 14.0938 18.8438C14.8148 19.2582 15.671 19.3691 16.4739 19.1523C17.2768 18.9355 17.9606 18.4086 18.375 17.6875L23.0625 9.6875L38.9063 18.8438C39.6273 19.2582 40.4835 19.3691 41.2864 19.1523C42.0893 18.9355 42.7731 18.4086 43.1875 17.6875C43.6019 16.9664 43.7129 16.1103 43.4961 15.3074C43.2792 14.5045 42.7523 13.8207 42.0313 13.4063L23.4688 2.71875Z" fill="black"/>
<path id="Vector_3" d="M76.5313 98.2813C77.0045 98.5621 77.5435 98.7131 78.0938 98.7188C78.3627 98.7642 78.6374 98.7642 78.9063 98.7188C79.7069 98.5108 80.3924 97.9939 80.8125 97.2813L87.0625 86.5625C87.4769 85.8415 87.5879 84.9853 87.3711 84.1824C87.1542 83.3795 86.6273 82.6957 85.9063 82.2813C85.1852 81.8669 84.3291 81.7559 83.5262 81.9727C82.7233 82.1896 82.0394 82.7165 81.625 83.4375L77 91.4375L61.1563 82.2813C60.4352 81.8669 59.5791 81.7559 58.7762 81.9727C57.9733 82.1896 57.2894 82.7165 56.875 83.4375C56.4606 84.1586 56.3496 85.0147 56.5665 85.8176C56.7833 86.6205 57.3102 87.3044 58.0313 87.7188L76.5313 98.2813Z" fill="black"/>
<path id="Vector_4" d="M50 31.75C46.2916 31.75 42.6665 32.8497 39.5831 34.9099C36.4996 36.9702 34.0964 39.8986 32.6773 43.3247C31.2581 46.7508 30.8868 50.5208 31.6103 54.1579C32.3338 57.7951 34.1195 61.136 36.7418 63.7583C39.364 66.3805 42.7049 68.1663 46.3421 68.8897C49.9792 69.6132 53.7492 69.2419 57.1753 67.8227C60.6014 66.4036 63.5298 64.0004 65.5901 60.9169C67.6503 57.8335 68.75 54.2084 68.75 50.5C68.75 45.5272 66.7746 40.7581 63.2583 37.2417C59.742 33.7254 54.9728 31.75 50 31.75ZM50 63C47.5277 63 45.111 62.2669 43.0554 60.8934C40.9998 59.5199 39.3976 57.5676 38.4515 55.2835C37.5054 52.9995 37.2579 50.4861 37.7402 48.0614C38.2225 45.6366 39.413 43.4093 41.1612 41.6612C42.9093 39.913 45.1366 38.7225 47.5614 38.2402C49.9861 37.7579 52.4995 38.0054 54.7836 38.9515C57.0676 39.8976 59.0199 41.4998 60.3934 43.5554C61.7669 45.611 62.5 48.0277 62.5 50.5C62.5 53.8152 61.183 56.9946 58.8388 59.3388C56.4946 61.683 53.3152 63 50 63Z" fill="black"/>
</g>
<defs>
<clipPath id="clip0_55_5011">
<rect width="100" height="100" fill="white" transform="translate(0 0.5)"/>
</clipPath>
</defs>
</svg>
