<svg width="25" height="25" viewBox="0 0 25 25" fill="none" xmlns="http://www.w3.org/2000/svg">
<g id="eye-off" clip-path="url(#clip0_54_616)">
<path id="Vector" d="M18.8045 18.4956C17.0881 19.7986 14.9981 20.5204 12.8402 20.5556C5.8115 20.5556 1.7951 12.5556 1.7951 12.5556C3.04409 10.2375 4.77641 8.21217 6.87584 6.61557M10.7316 4.79557C11.4227 4.63445 12.1304 4.55391 12.8402 4.55557C19.8689 4.55557 23.8853 12.5556 23.8853 12.5556C23.2758 13.6912 22.5489 14.7603 21.7164 15.7456M14.9689 14.6756C14.6931 14.9703 14.3605 15.2067 13.991 15.3707C13.6215 15.5347 13.2226 15.6228 12.8182 15.6299C12.4137 15.637 12.012 15.5629 11.6369 15.4121C11.2618 15.2612 10.9211 15.0366 10.635 14.7517C10.349 14.4668 10.1235 14.1275 9.97199 13.754C9.82049 13.3804 9.74608 12.9803 9.75322 12.5775C9.76036 12.1747 9.84889 11.7774 10.0135 11.4094C10.1782 11.0414 10.4155 10.7102 10.7115 10.4356" stroke="#345830" stroke-width="2" stroke-linecap="round" stroke-linejoin="round"/>
<path id="Vector_2" d="M1.7951 1.55554L23.8853 23.5555" stroke="#345830" stroke-width="2" stroke-linecap="round" stroke-linejoin="round"/>
</g>
<defs>
<clipPath id="clip0_54_616">
<rect width="24.0984" height="24" fill="white" transform="translate(0.791016 0.555542)"/>
</clipPath>
</defs>
</svg>
