<svg width="30" height="30" viewBox="0 0 30 30" fill="none" xmlns="http://www.w3.org/2000/svg">
<g id="heart-svgrepo-com 1" clip-path="url(#clip0_93_232)">
<g id="Group">
<path id="Vector" d="M27.5773 4.26121C26.0064 2.6903 23.9267 1.8317 21.7071 1.8317C19.4874 1.8317 17.4014 2.69666 15.8305 4.26757L15.01 5.088L14.1769 4.25485C12.606 2.68394 10.5135 1.81262 8.29391 1.81262C6.08064 1.81262 3.99458 2.67758 2.43003 4.24213C0.859118 5.81304 -0.00583685 7.89911 0.000523107 10.1187C0.000523107 12.3384 0.871838 14.4181 2.44275 15.989L14.3868 27.933C14.5521 28.0983 14.7747 28.1874 14.9909 28.1874C15.2072 28.1874 15.4298 28.1047 15.5951 27.9393L27.5646 16.0144C29.1355 14.4435 30.0005 12.3574 30.0005 10.1378C30.0068 7.91818 29.1482 5.83212 27.5773 4.26121ZM26.3562 14.7997L14.9909 26.1204L3.65114 14.7806C2.40459 13.534 1.71771 11.8804 1.71771 10.1187C1.71771 8.35702 2.39823 6.70343 3.64478 5.46324C4.88497 4.22305 6.53856 3.53617 8.29391 3.53617C10.0556 3.53617 11.7156 4.22305 12.9621 5.4696L14.3995 6.90695C14.7366 7.24403 15.2771 7.24403 15.6142 6.90695L17.0389 5.48232C18.2854 4.23577 19.9454 3.54889 21.7007 3.54889C23.4561 3.54889 25.1096 4.23577 26.3562 5.47596C27.6028 6.72251 28.2833 8.3761 28.2833 10.1378C28.2896 11.8995 27.6028 13.5531 26.3562 14.7997Z" fill="white"/>
</g>
</g>
<defs>
<clipPath id="clip0_93_232">
<rect width="30" height="30" fill="white"/>
</clipPath>
</defs>
</svg>
