<svg width="192" height="191" viewBox="0 0 192 191" fill="none" xmlns="http://www.w3.org/2000/svg">
<g id="Untitled18_20250412200646 1">
<g id="Group">
<path id="Vector" d="M125.76 4.27843C123.533 5.50082 121.344 8.55682 121.344 10.505C121.344 11.6128 121.037 11.651 118.464 10.8488C116.122 10.123 109.786 10.0084 106.56 10.6578C100.685 11.842 94.8864 14.2868 89.9712 17.6484C86.784 19.8258 86.1311 20.5134 86.6303 21.01C86.8607 21.2392 88.0896 20.5898 89.8559 19.2528C93.3887 16.6552 98.4959 14.134 103.104 12.7588C106.099 11.842 107.251 11.7274 111.936 11.6892C116.237 11.651 117.734 11.8038 119.347 12.3386C121.267 13.0262 121.421 13.179 122.688 15.7766C123.418 17.3046 124.915 19.5584 125.99 20.819C128.179 23.4166 131.52 28.8028 133.286 32.6992C134.362 35.0676 134.438 35.6024 134.246 37.818C133.786 43.2042 131.136 49.7364 128.333 52.4486C126.566 54.1676 126.682 54.2058 122.726 51.0734L120.038 48.9342L120.154 46.6804C120.307 43.2042 118.886 41.065 116.237 40.6066C114.163 40.301 110.976 42.2492 111.974 43.2806C112.128 43.3952 112.666 43.166 113.242 42.784C115.046 41.4852 116.122 41.447 117.504 42.6694C118.464 43.5098 118.771 44.1592 118.925 45.5726C119.194 47.7882 118.579 49.3162 116.89 50.806C116.16 51.4172 115.584 52.1048 115.584 52.334C115.584 53.0598 116.698 52.716 118.003 51.57C118.733 50.9206 119.424 50.424 119.578 50.424C119.693 50.424 121.037 51.379 122.534 52.525C124.032 53.671 125.645 54.7406 126.106 54.8552C126.72 55.008 127.142 55.8102 127.987 58.446C129.254 62.3042 132.672 69.4858 135.322 73.8406C136.32 75.4832 137.088 76.9348 136.973 77.0112C136.896 77.1258 135.014 76.8202 132.826 76.3618C129.446 75.6742 127.603 75.5214 120.922 75.5214L112.973 75.5596L112.09 73.6878C111.629 72.6564 110.899 71.5104 110.515 71.1666C109.67 70.4026 108.787 70.5936 103.68 72.7328C98.4959 74.9102 97.4976 74.6428 95.0399 70.7082C94.3487 69.6004 93.888 69.1802 93.6191 69.4476C93.1199 69.9442 95.0015 73.4968 96.3839 74.5664C97.8431 75.7506 100.762 75.3686 105.293 73.4204C109.478 71.625 109.67 71.5868 109.939 72.389C110.131 72.8092 109.939 72.8856 109.056 72.6946C108.173 72.5418 107.904 72.6182 107.904 73.1148C107.904 73.4586 108.173 73.726 108.48 73.726C110.285 73.726 113.434 79.265 113.203 82.0536C112.934 85.2624 110.323 84.3838 106.368 79.647L103.872 76.7056L101.069 76.8966C97.7279 77.164 95.9231 77.9662 92.6208 80.6402L90.2016 82.6266L89.1264 81.5952C87.0911 79.6852 84.3263 79.6088 81.6 81.4806C79.5648 82.8176 76.032 86.4848 76.032 87.1724C76.032 87.5544 76.1087 87.86 76.2239 87.86C76.3391 87.86 77.6063 86.6758 79.0271 85.2624C83.2896 80.984 86.016 80.2582 88.5504 82.7794C91.2 85.377 93.1583 91.6418 92.0832 93.8956C91.6224 94.7742 91.3151 94.927 90.1247 94.8888C88.32 94.8124 86.3999 93.3608 84.5567 90.6868C83.2896 88.815 82.1759 88.0892 82.1759 89.0824C82.1759 89.388 82.368 89.8082 82.5984 90.0374C82.9055 90.343 82.6367 90.916 81.5616 92.2148C80.7551 93.1698 79.9872 93.972 79.872 93.972C79.7568 93.972 79.4496 93.4754 79.2192 92.8642C78.6815 91.4126 77.5295 90.8778 72.3839 89.579C70.0799 88.9678 68.0831 88.433 68.0064 88.3566C67.8912 88.2802 68.1983 87.7454 68.6208 87.1724C69.8495 85.5298 70.9632 83.1996 71.2319 81.6716C71.5775 79.9526 70.8479 77.6988 69.8495 77.1258C69.1968 76.782 69.1199 76.4764 69.3503 74.7574C69.5039 73.6496 69.6576 72.7328 69.6959 72.6564C69.7343 72.6182 70.9632 72.8474 72.4223 73.1912C76.3391 74.108 81.7151 73.8024 84.4799 72.5418C87.3984 71.1666 88.6656 70.097 88.0511 69.4858C87.6672 69.1038 87.3984 69.1802 86.7072 69.8296C86.2079 70.2498 84.9408 71.0138 83.904 71.5104C82.2527 72.2744 81.3696 72.389 77.7599 72.389C74.1503 72.389 73.0368 72.2362 70.1951 71.2812C66.2015 69.9824 63.6671 68.4926 62.5536 66.7736C61.8624 65.6658 61.7855 65.0928 61.9776 62.075C62.0928 60.165 62.2847 58.1786 62.4384 57.5674C62.5919 56.918 62.5151 56.536 62.2847 56.536C61.5935 56.536 61.1327 57.7584 60.6719 60.547C59.8271 65.8568 61.3247 68.76 66.0863 70.9374L68.3904 72.007L68.16 74.49C67.9296 76.6292 67.6223 77.355 65.9711 79.7234C64.896 81.2514 63.2063 83.085 62.208 83.8108C59.3663 85.8354 54.528 93.6282 52.7999 98.8616C52.2239 100.581 52.1856 101.192 52.5695 103.14C53.0687 105.585 53.7983 107.457 55.1807 109.672L56.0639 111.047L54.2976 113.683C49.0367 121.514 46.8479 129.231 48.576 134.082C49.0751 135.457 49.0751 135.801 48.576 136.756C48.2687 137.329 47.6159 138.933 47.0783 140.309C45.8879 143.517 44.5055 145.657 42.2015 147.872C39.5519 150.432 36.9023 151.616 32.9471 152.036C29.1071 152.418 26.9183 152.953 24.7679 154.022C19.4687 156.696 16.4735 161.662 16.4351 167.736C16.3967 174.421 19.6991 179.043 22.2335 175.873C23.2319 174.612 23.2319 174.307 22.2719 172.244C20.6591 168.729 21.5423 163.42 24.1151 160.707C26.4191 158.301 28.3391 157.575 33.7535 157.002C37.8623 156.544 40.4735 155.55 43.6223 153.182L45.6191 151.692L45.8879 153.411C47.0015 160.898 52.1471 163.878 63.9743 163.878H68.736V177.439C68.736 190.083 68.7743 191 69.4272 191C70.0415 191 70.0799 189.969 70.0799 174.459C70.0799 165.406 70.2336 157.308 70.3871 156.544C70.6175 155.474 72.2304 153.411 77.4528 147.567C91.6608 131.752 103.68 119.069 106.138 117.389C107.558 116.395 107.174 115.517 105.677 116.281C102.989 117.694 71.2319 151.807 69.7343 154.901C69.1583 156.085 68.8127 158.339 68.7743 161.089L68.736 162.732H64.3583C56.8319 162.732 51.0336 161.089 48.9983 158.415C47.4623 156.353 47.0399 154.481 47.0399 149.553C47.0783 142.715 48.6143 137.826 52.3775 132.936C53.4527 131.561 57.0239 126.671 60.4031 122.049C66.3167 113.874 66.5471 113.645 68.2752 113.148C70.5792 112.461 72.4223 111.086 72.7295 109.787C72.8831 109.214 73.4207 108.259 73.9199 107.648C74.4192 107.036 74.9567 105.929 75.1104 105.126C75.264 104.362 75.6864 103.293 76.0704 102.796C76.4927 102.3 76.7999 101.497 76.7999 101.039C76.7999 100.16 77.8751 98.6324 81.6 94.0102L83.52 91.6418L84.672 92.9406C88.4352 97.1808 92.7744 97.41 93.5424 93.4372C93.8495 91.7946 92.8895 87.3634 91.8144 85.2242L91.0463 83.7344L92.4671 82.4356C95.616 79.6088 97.4591 78.6156 100.454 78.1954C103.258 77.8134 103.334 77.8134 103.949 78.7302C105.101 80.3728 108.826 84.1164 109.901 84.6512C111.475 85.4534 113.126 85.3388 113.818 84.3456C114.586 83.276 114.586 80.793 113.856 78.692C113.549 77.8134 113.28 76.973 113.28 76.8966C113.28 76.782 117.312 76.782 122.227 76.8966C129.37 77.0112 131.674 77.2022 133.824 77.7752C135.782 78.31 136.474 78.6538 136.358 79.074C136.282 79.3796 136.128 80.9458 136.013 82.5502C135.706 87.3252 137.434 91.68 142.656 99.6638C147.878 107.648 148.608 110.398 147.072 116.472C146.304 119.528 146.227 120.177 146.65 122.125C146.88 123.348 147.379 124.952 147.763 125.754L148.493 127.13L142.387 140.461C139.008 147.758 135.821 155.054 135.283 156.62C133.709 161.204 133.67 166.094 135.13 178.585C136.55 190.771 136.589 191 137.318 191C137.626 191 137.856 190.924 137.856 190.809C137.856 190.694 137.242 185.614 136.512 179.502C135.782 173.352 135.168 167.316 135.168 166.017L135.206 163.687L138.47 161.471C141.965 159.065 143.347 157.499 145.306 153.564C147.11 150.011 148.493 146.268 150.758 138.666C152.179 133.891 152.909 131.943 153.37 131.866C154.368 131.675 154.099 131.179 152.064 129.269C148.186 125.678 146.88 121.018 148.378 116.166C149.261 113.225 149.184 109.749 148.147 107.075C147.264 104.668 146.381 103.102 143.155 98.174C139.008 91.8328 137.088 87.096 137.088 83.1614C137.088 81.9772 137.664 79.6852 138.624 76.8584C141.312 69.1038 141.926 62.5716 140.736 53.8238C139.085 41.3706 133.286 27.2748 126.682 19.673C125.606 18.4124 124.186 16.3114 123.571 14.9744C122.458 12.5678 122.458 12.5296 123.187 11.3454C124.57 8.97702 128.87 7.52542 132.019 8.40402C132.864 8.59503 134.554 9.43542 135.782 10.2376C145.843 16.7316 153.485 28.1534 156.941 41.9054C157.862 45.5344 157.978 46.795 157.978 52.525C158.016 58.4842 157.939 59.3628 156.902 63.412C154.061 74.49 156.288 80.5638 168.115 93.8956C170.227 96.3022 172.416 99.0526 172.954 100.084C176.218 106.043 174.374 112.384 166.387 122.431C163.891 125.525 162.816 128.008 162.816 130.529C162.816 132.592 163.814 132.134 164.122 129.918C164.467 127.206 165.158 125.793 167.501 122.966C173.338 115.899 176.294 109.214 175.68 104.439C175.219 100.695 173.722 98.2886 167.616 91.489C162.586 85.8736 159.36 80.9458 157.862 76.5146C156.749 73.1912 156.787 68.9128 158.016 63.9468C159.475 57.873 159.821 54.0912 159.36 49.3544C158.323 39.1168 154.522 28.9556 148.723 20.9336C144.538 15.1654 136.358 8.28943 132.326 7.21982C129.562 6.45583 125.568 7.33443 123.571 9.09163C122.573 9.93202 122.726 9.20622 123.84 7.52542C124.378 6.76143 125.53 5.76822 126.336 5.34802C127.181 4.92783 127.872 4.39302 127.872 4.20203C127.872 3.70543 126.72 3.74362 125.76 4.27843ZM138.586 48.2848C140.39 56.6124 140.544 65.6276 139.008 71.625C138.586 73.2676 138.086 74.7956 137.933 74.9484C137.242 75.636 131.789 65.2838 129.446 58.9044C128.026 55.1226 127.987 54.5878 129.062 53.6328C131.405 51.5318 133.862 46.4894 135.014 41.3706L135.667 38.391L136.742 41.5998C137.357 43.357 138.163 46.3366 138.586 48.2848ZM70.0032 80.7548C69.9263 83.4288 66.8159 88.5094 65.5103 88.0128C64.9727 87.8218 64.2431 88.5094 64.6271 88.8532C64.7423 88.9678 66.9311 89.5408 69.5424 90.152C74.9567 91.4126 77.6063 92.253 78.0288 92.9406C78.6048 93.8192 78.3359 95.882 77.568 96.646C76.416 97.792 72.6912 97.6392 65.3951 96.073C64.3968 95.8438 64.1279 95.9202 64.1279 96.3786C64.1279 97.0662 68.2752 98.0976 72.6912 98.5178C75.2256 98.7088 75.456 98.8234 75.5712 99.6638C75.9935 102.567 74.3424 103.407 68.7743 102.949C63.3983 102.529 63.1679 102.529 63.0527 102.949C62.8607 103.522 66.624 104.21 70.3871 104.248C73.6511 104.286 73.728 104.286 73.728 105.203C73.728 107.418 71.6544 108.221 66.2399 108.03C63.7056 107.953 61.9391 108.068 61.8239 108.297C61.5551 108.87 63.4752 109.137 67.6992 109.214C69.7728 109.214 71.424 109.405 71.424 109.634C71.424 111.047 67.6992 112.461 63.936 112.461C61.0175 112.423 57.4464 110.818 56.1791 108.946C54.7584 106.807 53.7599 103.637 53.7599 101.345C53.7599 97.3336 58.7136 88.4712 63.0144 84.7658C64.2816 83.6962 66.1247 81.6716 67.0848 80.3346C68.6591 78.119 68.8895 77.928 69.4272 78.4628C69.7728 78.8066 70.0032 79.6852 70.0032 80.7548ZM60.3647 113.034C61.5935 113.492 63.0911 113.836 63.7056 113.836C64.8191 113.836 64.7808 113.951 59.8271 120.788C53.7599 129.192 50.3039 133.7 49.9199 133.7C49.0367 133.7 48.9599 129.422 49.7279 126.136C50.8799 121.361 56.256 111.659 57.5616 112.041C57.9072 112.155 59.1744 112.614 60.3647 113.034ZM150.682 129.842L151.757 130.988L149.798 137.596C145.19 152.876 143.078 156.887 137.664 160.593C136.512 161.395 135.475 162.006 135.398 161.93C135.322 161.853 135.59 160.44 135.974 158.797C136.666 155.932 148.762 128.734 149.338 128.734C149.491 128.734 150.106 129.231 150.682 129.842ZM44.2751 150.966C41.3183 154.022 38.0927 155.359 32.6399 155.894C26.5343 156.467 23.3087 158.492 21.1967 163.114C19.9295 165.826 19.8911 169.646 21.0431 172.549C21.8111 174.383 21.8111 174.612 21.2735 175.147C20.3903 176.026 19.8911 175.72 18.8159 173.619C17.9711 171.976 17.8559 171.212 17.8559 167.889C17.8559 164.489 17.9711 163.802 18.9695 161.701C21.1199 157.002 25.3439 154.213 31.3727 153.526C37.6703 152.8 40.4735 151.539 43.8143 147.91L45.5039 146.115L45.6191 147.796C45.7343 149.286 45.5807 149.629 44.2751 150.966Z" fill="black"/>
<path id="Vector_2" d="M80.2945 24.6773C73.9585 30.5219 74.1889 36.6339 80.9857 41.6763L82.3297 42.6695L81.0241 44.4649C80.1409 45.6491 79.4881 46.2221 79.0657 46.1075C78.1057 45.8401 74.6497 46.4895 71.0401 47.5973L67.7761 48.5905L63.8209 47.5973C61.6321 47.0243 59.6737 46.6805 59.4433 46.8333C58.8673 47.2153 59.4049 51.0735 60.2881 52.9453C61.3249 55.0463 62.5537 56.3451 63.0913 55.8103C63.3601 55.5429 63.3217 55.1991 62.8609 54.7407C61.2481 52.9453 59.8657 47.7501 61.1713 48.2467C61.4017 48.3231 63.0529 48.7051 64.7809 49.0871L67.9297 49.7747L72.2689 48.5523C78.2593 46.9097 79.4881 46.9861 83.5585 49.0871C87.1297 50.9589 87.5521 51.0735 87.5521 50.2713C87.5521 49.9657 86.1697 49.0107 84.4801 48.1703C82.7905 47.2917 81.4081 46.4513 81.4081 46.3367C81.4081 45.8019 83.1745 43.5481 83.4817 43.6627C83.6737 43.7391 84.1345 44.6177 84.4801 45.6873C84.9025 46.8715 85.3633 47.5973 85.8241 47.7119C86.3233 47.7883 86.4385 47.6737 86.2849 47.1389C85.0561 43.2807 84.4801 40.7213 84.4801 38.9259C84.4801 35.4115 84.5953 35.3351 87.2065 37.0923C90.1633 39.0787 94.7329 40.9887 98.5345 41.8673C101.606 42.5549 108.288 42.8223 109.555 42.3257C111.13 41.6763 109.594 41.2561 105.677 41.2561C101.222 41.2561 97.9969 40.6449 94.0801 39.1169C91.2385 37.9709 87.2449 35.7171 84.7105 33.8071C82.8673 32.3937 82.6369 32.4319 83.4817 33.9599C83.9425 34.7621 83.9425 35.1441 83.4817 36.4429C83.1361 37.4361 83.0209 38.5821 83.1745 39.8427C83.4049 41.5999 83.4049 41.7145 82.7137 41.3325C81.2929 40.5685 77.6833 36.4429 77.2225 35.0295C76.3009 32.3555 77.7985 28.9175 81.3697 25.4413C83.4433 23.3785 83.9041 22.5381 82.9441 22.5381C82.7521 22.5381 81.5617 23.4931 80.2945 24.6773Z" fill="black"/>
<path id="Vector_3" d="M66.2399 32.5463C66.6623 34.9147 67.6991 37.0921 69.1967 38.6965C71.5007 41.1031 72.3839 40.3009 70.1183 37.8179C68.9279 36.4809 67.9295 34.3417 67.4303 31.9733C67.2767 31.4003 66.9311 30.9419 66.5855 30.9419C66.0863 30.9419 66.0479 31.2093 66.2399 32.5463Z" fill="black"/>
<path id="Vector_4" d="M87.6671 42.4019C86.9759 42.8221 86.3999 43.4333 86.3999 43.7389C86.3999 44.5029 87.1295 44.4647 88.0127 43.6625C88.4351 43.3187 89.6255 42.9749 90.8543 42.8603C93.4655 42.6311 93.4271 41.8671 90.7775 41.7143C89.4335 41.6379 88.5503 41.8289 87.6671 42.4019Z" fill="black"/>
<path id="Vector_5" d="M106.137 44.0063C105.984 44.2737 106.214 44.6939 106.79 45.0377C109.901 47.0623 111.859 49.9655 112.358 53.1743C112.665 55.1989 113.203 56.2685 113.702 55.9247C114.739 55.2753 112.819 49.0487 110.822 46.7567C109.209 44.9231 106.56 43.3187 106.137 44.0063Z" fill="black"/>
<path id="Vector_6" d="M115.277 45.5344C115.085 45.8018 114.816 46.3748 114.739 46.795C114.586 47.75 115.776 48.0556 116.083 47.1006C116.16 46.7186 116.39 46.1074 116.544 45.7254C116.851 44.9614 115.891 44.8086 115.277 45.5344Z" fill="black"/>
<path id="Vector_7" d="M91.584 48.9723C90.624 49.4689 89.856 50.4239 89.856 51.0733C89.856 51.8373 90.624 51.6845 91.3536 50.7677C91.7376 50.3093 92.5056 49.9273 93.1968 49.8891C94.656 49.8127 95.232 49.3543 94.464 48.8959C93.696 48.3993 92.544 48.4375 91.584 48.9723Z" fill="black"/>
<path id="Vector_8" d="M87.3598 52.6014C88.1278 54.5496 88.0126 56.0776 86.9758 57.4146C86.323 58.3314 86.0158 59.1336 86.0926 59.8212C86.2462 61.0818 87.9742 62.4952 88.9342 62.1132C89.5486 61.884 89.4718 61.7312 88.3966 60.8908C87.7054 60.356 87.1678 59.7448 87.1678 59.5538C87.1678 59.3246 87.6286 58.5606 88.2046 57.7966C89.3566 56.3068 89.5486 54.3204 88.7422 52.7924C88.2046 51.761 86.9374 51.6082 87.3598 52.6014Z" fill="black"/>
<path id="Vector_9" d="M83.904 55.4665C82.6368 56.1923 81.7152 57.6821 82.5216 57.6821C83.0592 57.6821 86.016 55.6957 86.016 55.3137C86.016 54.8553 84.7872 54.9699 83.904 55.4665Z" fill="black"/>
<path id="Vector_10" d="M69.8879 58.2167C69.8879 58.5605 70.5407 58.7897 71.9231 58.9043C72.9983 59.0189 74.1503 59.1717 74.4575 59.2481C75.4559 59.5155 75.3407 58.4459 74.3039 58.0639C72.7679 57.4909 69.8879 57.5673 69.8879 58.2167Z" fill="black"/>
<path id="Vector_11" d="M79.6031 59.4773C78.4511 59.7065 78.4895 60.3941 79.6415 61.4637L80.5631 62.3423L81.2159 61.3491C81.5999 60.8143 81.7919 60.0885 81.6383 59.7829C81.4463 59.2099 81.1775 59.1717 79.6031 59.4773Z" fill="black"/>
<path id="Vector_12" d="M97.6512 62.2279C96.6528 63.1447 95.3088 63.8705 94.2336 64.1379C92.8128 64.5199 92.544 64.6727 92.928 65.1311C94.0032 66.4299 99.8016 63.1829 99.84 61.1965C99.84 60.4707 99.3792 60.6617 97.6512 62.2279Z" fill="black"/>
<path id="Vector_13" d="M80.1407 62.9153C79.9871 63.0299 79.8719 63.4501 79.8719 63.8321C79.8719 64.2141 79.4111 64.8635 78.8351 65.3219C77.9903 65.9713 77.4527 66.0859 76.3391 65.9331C74.7647 65.6657 74.0735 66.2005 75.2255 66.8117C76.7999 67.6521 79.7567 66.9263 80.5631 65.4747C80.8319 64.9781 81.0623 64.9399 81.7151 65.2837C83.5583 66.2769 86.3999 65.2455 86.3999 63.6029C86.3999 62.7625 85.5167 62.9153 84.9407 63.7939C84.2879 64.8635 82.7135 64.7489 81.5615 63.6029C80.4863 62.5333 80.4863 62.5333 80.1407 62.9153Z" fill="black"/>
<path id="Vector_14" d="M169.613 101.688C169.997 105.356 169.997 111.277 169.613 113.53C169.344 115.02 169.421 115.364 169.843 115.364C170.419 115.364 171.226 113.951 172.262 111.086C173.146 108.641 173.069 104.133 172.07 101.994C170.227 97.983 169.229 97.8684 169.613 101.688ZM171.533 107.991C171.456 108.794 171.379 108.144 171.379 106.578C171.379 105.012 171.456 104.362 171.533 105.126C171.61 105.929 171.61 107.227 171.533 107.991Z" fill="black"/>
<path id="Vector_15" d="M155.75 122.469C155.29 123.653 155.52 128.008 156.134 129.422C157.056 131.599 159.744 134.082 161.28 134.082C162.163 134.082 161.587 133.051 160.32 132.439C159.59 132.096 158.515 131.102 157.939 130.186C156.979 128.734 156.864 128.276 156.864 125.22C156.864 122.889 156.749 121.858 156.442 121.858C156.173 121.858 155.866 122.125 155.75 122.469Z" fill="black"/>
</g>
</g>
</svg>
