<svg width="18" height="15" viewBox="0 0 18 15" fill="none" xmlns="http://www.w3.org/2000/svg">
<g id="Group 77">
<path id="Rectangle 68" d="M16 7.18018C16 6.62789 15.5523 6.18018 15 6.18018H1C0.447715 6.18018 0 6.62789 0 7.18018C0 7.73246 0.447715 8.18018 1 8.18018H15C15.5523 8.18018 16 7.73246 16 7.18018Z" fill="#345830"/>
<path id="Rectangle 70" d="M17.2926 7.7784C16.9021 8.16892 16.269 8.16892 15.8784 7.7784L10.2216 2.12154C9.83106 1.73102 9.83106 1.09785 10.2216 0.707328C10.6121 0.316804 11.2453 0.316804 11.6358 0.707328L17.2926 6.36418C17.6832 6.75471 17.6832 7.38787 17.2926 7.7784Z" fill="#345830"/>
<path id="Rectangle 71" d="M17.2782 6.63582C16.8876 6.24529 16.2545 6.24529 15.8639 6.63582L10.2071 12.2927C9.81656 12.6832 9.81656 13.3164 10.2071 13.7069C10.5976 14.0974 11.2308 14.0974 11.6213 13.7069L17.2782 8.05003C17.6687 7.65951 17.6687 7.02634 17.2782 6.63582Z" fill="#345830"/>
</g>
</svg>
