<svg width="20" height="20" viewBox="0 0 20 20" fill="none" xmlns="http://www.w3.org/2000/svg">
<g id="money-svgrepo-com 1" clip-path="url(#clip0_77_436)">
<path id="Vector" d="M19.375 4.375H0.625C0.45924 4.375 0.300269 4.44085 0.183058 4.55806C0.065848 4.67527 0 4.83424 0 5L0 15C0 15.1658 0.065848 15.3247 0.183058 15.4419C0.300269 15.5592 0.45924 15.625 0.625 15.625H19.375C19.5408 15.625 19.6997 15.5592 19.8169 15.4419C19.9342 15.3247 20 15.1658 20 15V5C20 4.83424 19.9342 4.67527 19.8169 4.55806C19.6997 4.44085 19.5408 4.375 19.375 4.375ZM15.6812 14.375H4.31875C4.18849 13.6085 3.82319 12.9014 3.2734 12.3516C2.72361 11.8018 2.01653 11.4365 1.25 11.3063V8.69375C2.01653 8.56349 2.72361 8.19819 3.2734 7.6484C3.82319 7.09861 4.18849 6.39153 4.31875 5.625H15.6812C15.8115 6.39153 16.1768 7.09861 16.7266 7.6484C17.2764 8.19819 17.9835 8.56349 18.75 8.69375V11.3063C17.9835 11.4365 17.2764 11.8018 16.7266 12.3516C16.1768 12.9014 15.8115 13.6085 15.6812 14.375ZM18.75 7.4125C18.3201 7.30028 17.9279 7.0755 17.6137 6.76132C17.2995 6.44715 17.0747 6.05491 16.9625 5.625H18.75V7.4125ZM3.0375 5.625C2.92528 6.05491 2.7005 6.44715 2.38632 6.76132C2.07215 7.0755 1.67991 7.30028 1.25 7.4125V5.625H3.0375ZM1.25 12.5875C1.67991 12.6997 2.07215 12.9245 2.38632 13.2387C2.7005 13.5529 2.92528 13.9451 3.0375 14.375H1.25V12.5875ZM16.9625 14.375C17.0747 13.9451 17.2995 13.5529 17.6137 13.2387C17.9279 12.9245 18.3201 12.6997 18.75 12.5875V14.375H16.9625Z" fill="white"/>
<path id="Vector_2" d="M4.69356 0.443775C4.62239 0.402629 4.5438 0.375929 4.46229 0.365204C4.38078 0.35448 4.29795 0.359941 4.21856 0.381275C4.05843 0.422872 3.92133 0.52626 3.83731 0.668775L2.58731 2.81252C2.50443 2.95674 2.48223 3.12797 2.5256 3.28854C2.56897 3.44912 2.67435 3.58589 2.81856 3.66877C2.96277 3.75166 3.134 3.77385 3.29458 3.73048C3.45516 3.68712 3.59193 3.58174 3.67481 3.43753L4.61231 1.83753L7.78106 3.66877C7.92527 3.75166 8.0965 3.77385 8.25708 3.73048C8.41766 3.68712 8.55443 3.58174 8.63731 3.43753C8.72019 3.29331 8.74239 3.12208 8.69902 2.96151C8.65565 2.80093 8.55027 2.66416 8.40606 2.58127L4.69356 0.443775Z" fill="white"/>
<path id="Vector_3" d="M15.3062 19.5562C15.4008 19.6124 15.5086 19.6426 15.6187 19.6437C15.6724 19.6528 15.7274 19.6528 15.7812 19.6437C15.9413 19.6021 16.0784 19.4987 16.1624 19.3562L17.4124 17.2125C17.4953 17.0683 17.5175 16.897 17.4741 16.7365C17.4308 16.5759 17.3254 16.4391 17.1812 16.3562C17.0369 16.2734 16.8657 16.2512 16.7051 16.2945C16.5446 16.3379 16.4078 16.4433 16.3249 16.5875L15.3999 18.1875L12.2312 16.3562C12.0869 16.2734 11.9157 16.2512 11.7551 16.2945C11.5946 16.3379 11.4578 16.4433 11.3749 16.5875C11.292 16.7317 11.2698 16.9029 11.3132 17.0635C11.3566 17.2241 11.4619 17.3609 11.6062 17.4437L15.3062 19.5562Z" fill="white"/>
<path id="Vector_4" d="M10 6.25C9.25832 6.25 8.5333 6.46993 7.91661 6.88199C7.29993 7.29404 6.81928 7.87971 6.53545 8.56494C6.25162 9.25016 6.17736 10.0042 6.32206 10.7316C6.46675 11.459 6.8239 12.1272 7.34835 12.6517C7.8728 13.1761 8.54098 13.5333 9.26841 13.6779C9.99584 13.8226 10.7498 13.7484 11.4351 13.4645C12.1203 13.1807 12.706 12.7001 13.118 12.0834C13.5301 11.4667 13.75 10.7417 13.75 10C13.75 9.00544 13.3549 8.05161 12.6517 7.34835C11.9484 6.64509 10.9946 6.25 10 6.25ZM10 12.5C9.50555 12.5 9.0222 12.3534 8.61108 12.0787C8.19995 11.804 7.87952 11.4135 7.6903 10.9567C7.50108 10.4999 7.45158 9.99723 7.54804 9.51227C7.6445 9.02732 7.8826 8.58186 8.23223 8.23223C8.58187 7.8826 9.02732 7.6445 9.51228 7.54804C9.99723 7.45157 10.4999 7.50108 10.9567 7.6903C11.4135 7.87952 11.804 8.19995 12.0787 8.61107C12.3534 9.0222 12.5 9.50555 12.5 10C12.5 10.663 12.2366 11.2989 11.7678 11.7678C11.2989 12.2366 10.663 12.5 10 12.5Z" fill="white"/>
</g>
<defs>
<clipPath id="clip0_77_436">
<rect width="20" height="20" fill="white"/>
</clipPath>
</defs>
</svg>
